<?xml version="1.0" encoding="UTF-8" standalone="no"?>
<!-- Generator: Adobe Illustrator 13.0.1, SVG Export Plug-In . SVG Version: 6.00 Build 14948)  -->

<svg
   xmlns:dc="http://purl.org/dc/elements/1.1/"
   xmlns:cc="http://creativecommons.org/ns#"
   xmlns:rdf="http://www.w3.org/1999/02/22-rdf-syntax-ns#"
   xmlns:svg="http://www.w3.org/2000/svg"
   xmlns="http://www.w3.org/2000/svg"
   xmlns:xlink="http://www.w3.org/1999/xlink"
   xmlns:sodipodi="http://sodipodi.sourceforge.net/DTD/sodipodi-0.dtd"
   xmlns:inkscape="http://www.inkscape.org/namespaces/inkscape"
   version="1.1"
   id="Capa_1"
   x="0px"
   y="0px"
   width="375.59055"
   height="170.53937"
   viewBox="0 0 375.59055 170.53935"
   enable-background="new 0 0 371.197 255.199"
   xml:space="preserve"
   inkscape:version="0.48.2 r9819"
   sodipodi:docname="logo-SISOB.svg"><metadata
   id="metadata3295"><rdf:RDF><cc:Work
       rdf:about=""><dc:format>image/svg+xml</dc:format><dc:type
         rdf:resource="http://purl.org/dc/dcmitype/StillImage" /><dc:title></dc:title></cc:Work></rdf:RDF></metadata><defs
   id="defs3293" /><sodipodi:namedview
   pagecolor="#ffffff"
   bordercolor="#666666"
   borderopacity="1"
   objecttolerance="10"
   gridtolerance="10"
   guidetolerance="10"
   inkscape:pageopacity="0"
   inkscape:pageshadow="2"
   inkscape:window-width="1149"
   inkscape:window-height="793"
   id="namedview3291"
   showgrid="false"
   units="mm"
   inkscape:zoom="2.1943659"
   inkscape:cx="185.5985"
   inkscape:cy="127.5995"
   inkscape:window-x="0"
   inkscape:window-y="0"
   inkscape:window-maximized="0"
   inkscape:current-layer="Capa_1" />
<g
   id="g3161"
   transform="translate(0,-84.659492)">
	<defs
   id="defs3163">
		<rect
   id="SVGID_1_"
   width="371.19699"
   height="255.19901"
   x="0"
   y="0" />
	</defs>
	<clipPath
   id="SVGID_2_">
		<use
   xlink:href="#SVGID_1_"
   overflow="visible"
   id="use3167"
   style="overflow:visible"
   x="0"
   y="0"
   width="371.19699"
   height="255.19901" />
	</clipPath>
	<g
   clip-path="url(#SVGID_2_)"
   id="g3169">
		<defs
   id="defs3171">
			<rect
   id="SVGID_3_"
   width="371.19699"
   height="255.19901"
   x="0"
   y="0" />
		</defs>
		<clipPath
   id="SVGID_4_">
			<use
   xlink:href="#SVGID_3_"
   overflow="visible"
   id="use3175"
   style="overflow:visible"
   x="0"
   y="0"
   width="371.19699"
   height="255.19901" />
		</clipPath>
		<g
   clip-path="url(#SVGID_4_)"
   id="g3177"
   style="opacity:0">
			<g
   id="g3179">
				<defs
   id="defs3181">
					<rect
   id="SVGID_5_"
   x="1.347"
   y="0.039999999"
   width="368.504"
   height="255.118" />
				</defs>
				<clipPath
   id="SVGID_6_">
					<use
   xlink:href="#SVGID_5_"
   overflow="visible"
   id="use3185"
   style="overflow:visible"
   x="0"
   y="0"
   width="371.19699"
   height="255.19901" />
				</clipPath>
				<rect
   x="1.347"
   y="0.039999999"
   clip-path="url(#SVGID_6_)"
   width="368.50299"
   height="255.118"
   id="rect3187"
   style="fill:#412682" />
			</g>
		</g>
	</g>
	<g
   clip-path="url(#SVGID_2_)"
   id="g3189">
		<defs
   id="defs3191">
			<path
   id="SVGID_7_"
   d="m 230.511,100.933 v 46.574 c 0,5.982 4.852,10.832 10.831,10.832 h 9.661 c 5.982,0 10.829,-4.85 10.829,-10.832 v -35.765 c 0,-0.439 -0.035,-0.866 -0.083,-1.291 -0.639,-5.376 -5.203,-9.543 -10.746,-9.543 l -20.492,0.025 z"
   inkscape:connector-curvature="0" />
		</defs>
		<clipPath
   id="SVGID_8_">
			<use
   xlink:href="#SVGID_7_"
   overflow="visible"
   id="use3195"
   style="overflow:visible"
   x="0"
   y="0"
   width="371.19699"
   height="255.19901" />
		</clipPath>
		
			<linearGradient
   id="SVGID_9_"
   gradientUnits="userSpaceOnUse"
   x1="0.0063"
   y1="255.207"
   x2="1.0063"
   y2="255.207"
   gradientTransform="matrix(0,-57.4316,-57.4316,0,14903.061,158.6992)">
			<stop
   offset="0"
   style="stop-color:#F19000"
   id="stop3198" />
			<stop
   offset="0.2242"
   style="stop-color:#F19000"
   id="stop3200" />
			<stop
   offset="0.318"
   style="stop-color:#F29300"
   id="stop3202" />
			<stop
   offset="0.4446"
   style="stop-color:#F49B22"
   id="stop3204" />
			<stop
   offset="0.5902"
   style="stop-color:#F6A742"
   id="stop3206" />
			<stop
   offset="0.7497"
   style="stop-color:#F8B968"
   id="stop3208" />
			<stop
   offset="0.9189"
   style="stop-color:#FBCF98"
   id="stop3210" />
			<stop
   offset="1"
   style="stop-color:#FDDBB1"
   id="stop3212" />
		</linearGradient>
		<rect
   x="230.511"
   y="100.908"
   clip-path="url(#SVGID_8_)"
   width="31.320999"
   height="57.431"
   id="rect3214"
   style="fill:url(#SVGID_9_)"
   transform="matrix(0.99999848,0,0,0.9999985,0.85056149,54.021935)" />
	</g>
	<g
   clip-path="url(#SVGID_2_)"
   id="g3216">
		<defs
   id="defs3218">
			<path
   id="SVGID_10_"
   d="m 92.287,86.307 c 0,4.186 3.395,7.577 7.581,7.577 4.184,0 7.576,-3.391 7.576,-7.577 0,-4.188 -3.392,-7.58 -7.576,-7.58 -4.186,0 -7.581,3.392 -7.581,7.58"
   inkscape:connector-curvature="0" />
		</defs>
		<clipPath
   id="SVGID_11_">
			<use
   xlink:href="#SVGID_10_"
   overflow="visible"
   id="use3222"
   style="overflow:visible"
   x="0"
   y="0"
   width="371.19699"
   height="255.19901" />
		</clipPath>
		
			<radialGradient
   id="SVGID_12_"
   cx="-0.032200001"
   cy="255.166"
   r="1"
   gradientTransform="matrix(7.5784,0,0,-7.5784,100.1133,2020.0525)"
   gradientUnits="userSpaceOnUse">
			<stop
   offset="0"
   style="stop-color:#DEEDD9"
   id="stop3225" />
			<stop
   offset="0.1552"
   style="stop-color:#CBE3C5"
   id="stop3227" />
			<stop
   offset="0.4859"
   style="stop-color:#96C88D"
   id="stop3229" />
			<stop
   offset="0.9091"
   style="stop-color:#17A345"
   id="stop3231" />
			<stop
   offset="1"
   style="stop-color:#17A345"
   id="stop3233" />
		</radialGradient>
		<rect
   x="92.287003"
   y="78.726997"
   clip-path="url(#SVGID_11_)"
   width="15.157"
   height="15.157"
   id="rect3235"
   style="fill:url(#SVGID_12_)"
   transform="matrix(0.99999848,0,0,0.9999985,0.85056149,54.021935)" />
	</g>
	<g
   clip-path="url(#SVGID_2_)"
   id="g3237">
		<defs
   id="defs3239">
			<rect
   id="SVGID_13_"
   width="371.19699"
   height="255.19901"
   x="0"
   y="0" />
		</defs>
		<clipPath
   id="SVGID_14_">
			<use
   xlink:href="#SVGID_13_"
   overflow="visible"
   id="use3243"
   style="overflow:visible"
   x="0"
   y="0"
   width="371.19699"
   height="255.19901" />
		</clipPath>
		<path
   clip-path="url(#SVGID_14_)"
   d="m 326.922,121.309 -4.746,0.024 c -3.053,0 -5.539,-2.485 -5.539,-5.541 0,-3.05 2.486,-5.539 5.539,-5.539 h 4.784 c 16.578,0 30.063,-13.485 30.063,-30.063 0,-7.437 -2.729,-14.237 -7.216,-19.487 -5.519,-6.459 -13.706,-10.577 -22.848,-10.577 h -90.403 c -15.154,0 -27.685,11.45 -29.396,26.157 h -56.937 c -17.299,0 -30.851,12.998 -30.851,29.593 0,7.035 2.482,13.496 6.595,18.579 5.43,6.709 13.718,11.012 23,11.012 h 21.942 c 9.134,0 16.562,7.43 16.562,16.566 0,9.134 -7.428,16.564 -16.562,16.564 h -64.506 v -24.135 c 4.049,-1.198 6.985,-4.771 6.985,-8.99 v -26.808 c 0,-5.203 -4.466,-9.419 -9.973,-9.419 h -3.544 c -0.014,0 -0.029,-0.006 -0.047,-0.006 H 40.769 c -13.182,0 -23.903,10.724 -23.903,23.903 0,11.526 8.199,21.168 19.073,23.41 1.559,0.32 3.172,0.489 4.83,0.489 h 16.467 c 5.925,0 10.744,4.822 10.744,10.748 0,5.923 -4.819,10.741 -10.744,10.741 h -12.95 c -0.035,0 -0.069,0.007 -0.103,0.007 v -0.021 H 30.617 c -3.618,0 -6.565,2.941 -6.565,6.562 0,3.62 2.947,6.562 6.565,6.562 h 12.911 c 0.249,0.03 0.5,0.049 0.758,0.049 h 12.95 c 13.178,0 23.903,-10.72 23.903,-23.9 0,-10.376 -6.657,-19.201 -15.914,-22.501 -2.5,-0.892 -5.183,-1.402 -7.989,-1.402 H 40.769 c -5.926,0 -10.744,-4.822 -10.744,-10.744 0,-5.925 4.818,-10.745 10.744,-10.745 h 45.016 v 23.075 c 0,4.383 3.171,8.055 7.462,9.109 v 29.804 c 0,0.236 0.046,0.458 0.072,0.688 0,0.012 -0.005,0.025 -0.005,0.039 0,3.596 2.915,6.511 6.512,6.511 h 71.085 c 16.315,0 29.591,-13.272 29.591,-29.591 0,-16.317 -13.276,-29.594 -29.591,-29.594 h -21.942 c -0.038,0 -0.077,-0.002 -0.114,-0.006 -9.083,-0.062 -16.451,-7.462 -16.451,-16.558 0,-9.446 7.662,-16.567 17.821,-16.567 h 56.737 v 62.725 c 0,16.318 13.276,29.591 29.595,29.591 h 20.575 c 3.792,0 7.41,-0.745 10.747,-2.049 2.591,-1.015 5,-2.386 7.176,-4.048 7.078,-5.412 11.67,-13.916 11.67,-23.494 v -48.85 c 0,-15.589 -12.444,-26.901 -29.593,-26.901 h -36.781 c 1.586,-7.494 8.251,-13.13 16.206,-13.13 h 90.403 c 5.901,0 11.11,3.019 14.167,7.591 1.812,2.707 2.87,5.952 2.87,9.446 0,9.394 -7.643,17.037 -17.037,17.037 h -4.784 c -10.238,0 -18.565,8.328 -18.565,18.565 0,10.238 8.327,18.568 18.602,18.568 l 4.748,-0.022 c 9.395,0 17.037,7.64 17.037,17.035 0,9.392 -7.643,17.036 -17.037,17.036 h -17.835 c -3.595,0 -6.514,2.912 -6.514,6.514 0,3.598 2.919,6.514 6.514,6.514 h 17.835 c 16.578,0 30.063,-13.488 30.063,-30.063 -10e-4,-16.579 -13.486,-30.063 -30.102,-30.063 m -69.79,-32 c 8.247,0 16.566,4.292 16.566,13.875 v 48.85 c 0,4.76 -2.032,9.047 -5.258,12.069 -1.264,1.185 -2.709,2.17 -4.294,2.916 -2.134,1.003 -4.504,1.579 -7.015,1.579 h -20.575 c -9.134,0 -16.563,-7.431 -16.563,-16.564 V 89.309 h 37.139 z"
   id="path3245"
   inkscape:connector-curvature="0"
   style="fill:#412682"
   transform="matrix(0.99999848,0,0,0.9999985,0.85056149,54.021935)" />
	</g>
	<g
   clip-path="url(#SVGID_2_)"
   id="g3247">
		<defs
   id="defs3249">
			<path
   id="SVGID_15_"
   d="m 241.342,204.942 c -5.979,0 -10.831,4.851 -10.831,10.833 v 39.424 h 30.682 c 0.27,-0.754 0.459,-1.547 0.557,-2.368 0.048,-0.424 0.083,-0.854 0.083,-1.29 v -35.766 c 0,-5.982 -4.847,-10.833 -10.829,-10.833 h -9.662 z"
   inkscape:connector-curvature="0" />
		</defs>
		<clipPath
   id="SVGID_16_">
			<use
   xlink:href="#SVGID_15_"
   overflow="visible"
   id="use3253"
   style="overflow:visible"
   x="0"
   y="0"
   width="371.19699"
   height="255.19901" />
		</clipPath>
		
			<linearGradient
   id="SVGID_17_"
   gradientUnits="userSpaceOnUse"
   x1="0.0024000001"
   y1="255.2021"
   x2="1.0024"
   y2="255.2021"
   gradientTransform="matrix(0,57.4326,-57.4326,0,14903.098,204.793)">
			<stop
   offset="0"
   style="stop-color:#FEEEDB"
   id="stop3256" />
			<stop
   offset="0.8789"
   style="stop-color:#FFFFFF"
   id="stop3258" />
			<stop
   offset="1"
   style="stop-color:#FFFFFF"
   id="stop3260" />
		</linearGradient>
		
	</g>
	<g
   clip-path="url(#SVGID_2_)"
   id="g3264">
		<defs
   id="defs3266">
			<path
   id="SVGID_18_"
   d="m 309.125,181.848 c -3.595,0 -6.513,2.916 -6.513,6.514 0,3.598 2.918,6.514 6.513,6.514 h 17.835 c 9.394,0 17.037,7.645 17.037,17.036 0,9.395 -7.644,17.035 -17.037,17.035 l -4.748,-0.023 c -10.274,0 -18.601,8.331 -18.601,18.565 0,2.75 0.6,5.361 1.677,7.711 h 32.894 c -3.469,-1.401 -7.256,-2.173 -11.222,-2.173 h -4.784 c -3.053,0 -5.539,-2.485 -5.539,-5.538 0,-3.056 2.486,-5.539 5.539,-5.539 l 4.746,0.025 c 16.616,0 30.103,-13.487 30.103,-30.063 0,-16.575 -13.486,-30.063 -30.064,-30.063 h -17.836 z m -72.568,-0.19 c -16.318,0 -29.595,13.273 -29.595,29.59 v 43.951 h 13.031 v -43.951 c 0,-9.135 7.43,-16.562 16.563,-16.562 h 20.575 c 2.511,0 4.88,0.577 7.015,1.578 1.585,0.746 3.03,1.729 4.294,2.914 3.226,3.023 5.258,7.31 5.258,12.07 v 43.951 h 13.026 v -43.951 c 0,-9.576 -4.592,-18.081 -11.671,-23.492 -2.175,-1.666 -4.584,-3.031 -7.175,-4.048 -3.337,-1.306 -6.956,-2.05 -10.747,-2.05 H 236.557 z M 44.286,181.592 c -0.258,0 -0.51,0.019 -0.758,0.05 H 30.617 c -3.618,0 -6.565,2.939 -6.565,6.562 0,3.618 2.947,6.563 6.565,6.563 h 13.566 v -0.024 c 0.034,0.003 0.068,0.009 0.103,0.009 h 12.95 c 5.925,0 10.744,4.819 10.744,10.742 0,5.925 -4.819,10.744 -10.744,10.744 H 40.768 c -1.657,0 -3.27,0.17 -4.829,0.493 -10.875,2.238 -19.073,11.883 -19.073,23.408 0,5.703 2.007,10.946 5.353,15.061 h 91.151 c 0.013,-0.193 0.019,-0.387 0.019,-0.582 v -26.807 c 0,-4.22 -2.935,-7.792 -6.984,-8.993 v -24.132 h 64.506 c 9.134,0 16.562,7.428 16.562,16.562 0,9.134 -7.428,16.568 -16.562,16.568 h -21.942 c -9.283,0 -17.571,4.302 -23,11.008 -3.679,4.549 -6.053,10.199 -6.513,16.375 h 13.095 c 1.077,-8.057 7.968,-14.296 16.304,-14.35 0.036,-0.004 0.076,-0.01 0.114,-0.01 h 21.942 c 16.313,0 29.591,-13.275 29.591,-29.592 0,-16.317 -13.277,-29.59 -29.591,-29.59 H 99.826 c -3.597,0 -6.512,2.915 -6.512,6.511 0,0.015 0.005,0.029 0.005,0.04 -0.026,0.227 -0.072,0.453 -0.072,0.688 V 218.7 c -4.291,1.052 -7.462,4.727 -7.462,9.11 v 23.074 H 40.768 c -5.925,0 -10.744,-4.818 -10.744,-10.746 0,-5.924 4.819,-10.742 10.744,-10.742 h 16.468 c 2.806,0 5.489,-0.513 7.989,-1.406 9.256,-3.296 15.914,-12.122 15.914,-22.497 0,-13.181 -10.725,-23.901 -23.903,-23.901 h -12.95 z"
   inkscape:connector-curvature="0" />
		</defs>
		<clipPath
   id="SVGID_19_">
			<use
   xlink:href="#SVGID_18_"
   overflow="visible"
   id="use3270"
   style="overflow:visible"
   x="0"
   y="0"
   width="371.19699"
   height="255.19901" />
		</clipPath>
		
			<linearGradient
   id="SVGID_20_"
   gradientUnits="userSpaceOnUse"
   x1="0"
   y1="255.1973"
   x2="1"
   y2="255.1973"
   gradientTransform="matrix(0,131.7888,131.7888,0,-33445.273,183.5742)">
			<stop
   offset="0"
   style="stop-color:#B7A9CF"
   id="stop3273" />
			<stop
   offset="0.0642"
   style="stop-color:#C9BEDC"
   id="stop3275" />
			<stop
   offset="0.1561"
   style="stop-color:#DDD6E9"
   id="stop3277" />
			<stop
   offset="0.2587"
   style="stop-color:#ECE8F3"
   id="stop3279" />
			<stop
   offset="0.3763"
   style="stop-color:#F7F5FA"
   id="stop3281" />
			<stop
   offset="0.5219"
   style="stop-color:#FDFDFE"
   id="stop3283" />
			<stop
   offset="0.7796"
   style="stop-color:#FFFFFF"
   id="stop3285" />
			<stop
   offset="1"
   style="stop-color:#FFFFFF"
   id="stop3287" />
		</linearGradient>
		
	</g>
</g>
</svg>